<?xml version="1.0" encoding="UTF-8"?>
<svg width="70px" height="70px" viewBox="0 0 70 70" version="1.1" xmlns="http://www.w3.org/2000/svg" xmlns:xlink="http://www.w3.org/1999/xlink">
    <!-- Generator: Sketch 63.1 (92452) - https://sketch.com -->
    <title>Group 8</title>
    <desc>Created with Sketch.</desc>
    <g id="Page-1" stroke="none" stroke-width="1" fill="none" fill-rule="evenodd" opacity="0.74500093">
        <g id="Group-8">
            <circle id="Oval" stroke="#FFFFFF" stroke-width="2" cx="35" cy="35" r="34"></circle>
            <path d="M52.3286624,32.900535 L52.3286624,28.5977546 C52.3286624,28.0260447 51.8847323,27.5625822 51.3371168,27.5625822 L17.9915456,27.5625822 C17.4443328,27.5635961 17.0009711,28.0264651 17,28.5977546 L17,39.0342075 C17,44.8768529 19.6094233,50.2590124 24.1543011,53.7955443 C24.3261244,53.9276275 24.5337356,53.999231 24.7471113,54 L44.5744938,54 C44.7878695,53.999231 44.9954807,53.9276275 45.167304,53.7955443 C47.0074855,52.364354 48.5000968,50.5574072 49.7015959,48.4925884 C50.2255978,48.6215244 50.7531282,48.7762477 51.248901,48.7836155 L51.3388811,48.7836155 C55.5079597,48.7836155 58.9466114,45.232348 58.9995409,40.8687834 C59.0418845,36.8109815 56.1501707,33.4475923 52.3286624,32.900535 L52.3286624,32.900535 Z M50.343807,33.8251908 L50.343807,39.0342075 C50.343807,41.7763714 49.667674,44.4723667 48.3801233,46.8624682 C47.3440119,48.826737 45.9342942,50.5492036 44.2375095,51.9241295 L25.0858599,51.9241295 C21.2026006,48.7836155 18.9830911,44.1032366 18.9830911,39.0342075 L18.9830911,29.6329269 L50.343807,29.6329269 L50.343807,33.8251908 Z M51.3371168,46.7077449 L51.2718371,46.7077449 C51.081765,46.70712 50.8919549,46.6929656 50.7037274,46.6653802 C50.7513639,46.5714411 50.7619498,46.4682923 50.8007648,46.3743531 C51.2499622,45.339049 51.6021151,44.2607819 51.8522971,43.1546356 C51.8999336,42.9667573 51.9211054,42.7733532 51.9616846,42.5799491 C52.1857528,41.4213665 52.3304267,40.2406806 52.3304267,39.0360495 L52.3304267,34.9450925 C55.0617155,35.4594458 57.0397996,37.9548609 57.0129212,40.8522059 C56.9639404,44.0919699 54.4407055,46.6951075 51.3371168,46.7077449 L51.3371168,46.7077449 Z M34.6625669,24.7204697 C34.3989818,24.7214424 34.1458708,24.6128124 33.9591561,24.4185737 C33.7724414,24.224335 33.6674927,23.960475 33.6674927,23.6852908 L33.6674927,13.0370143 C33.6674927,12.4642871 34.1122127,12 34.6608025,12 C35.2093924,12 35.6541124,12.4642871 35.6541124,13.0370143 L35.6541124,23.6852908 C35.6541124,24.2562933 35.2077405,24.7204697 34.6625669,24.7204697 Z M43.0042526,24.7204631 C42.4566371,24.7204631 42.0127071,24.2570007 42.0127071,23.6852908 L42.0127071,15.4904833 C42.0127071,14.9187734 42.4566372,14.455311 43.0042526,14.455311 C43.5518681,14.455311 43.9957982,14.9187734 43.9957982,15.4904833 L43.9957982,23.6852908 C43.9957982,24.2562933 43.5529549,24.7204631 43.0042526,24.7204631 Z M26.3226454,24.7204631 C25.7750299,24.7204631 25.3310999,24.2570007 25.3310999,23.6852908 L25.3310999,15.4904833 C25.3310999,14.9187734 25.7750299,14.4553109 26.3226454,14.4553109 C26.8702609,14.4553109 27.314191,14.9187734 27.314191,15.4904833 L27.314191,23.6852908 C27.314191,24.2562933 26.867819,24.7204631 26.3226454,24.7204631 L26.3226454,24.7204631 Z" id="Coffee-cup-2" fill="#FFFFFF" fill-rule="nonzero"></path>
        </g>
    </g>
</svg>