<?xml version="1.0" encoding="UTF-8"?>
<svg width="70px" height="70px" viewBox="0 0 70 70" version="1.1" xmlns="http://www.w3.org/2000/svg" xmlns:xlink="http://www.w3.org/1999/xlink">
    <!-- Generator: Sketch 63.1 (92452) - https://sketch.com -->
    <title>Combined Shape</title>
    <desc>Created with Sketch.</desc>
    <g id="Page-1" stroke="none" stroke-width="1" fill="none" fill-rule="evenodd" opacity="0.750046503">
        <path d="M35,1 C44.3888407,1 52.8888407,4.80557963 59.0416306,10.9583694 C65.1944204,17.1111593 69,25.6111593 69,35 C69,44.3888407 65.1944204,52.8888407 59.0416306,59.0416306 C52.8888407,65.1944204 44.3888407,69 35,69 C25.6111593,69 17.1111593,65.1944204 10.9583694,59.0416306 C4.80557963,52.8888407 1,44.3888407 1,35 C1,25.6111593 4.80557963,17.1111593 10.9583694,10.9583694 C17.1111593,4.80557963 25.6111593,1 35,1 Z M53.3160195,17.6175926 L24.4484354,39.3168751 L18.3069989,29.6460564 L10.6692877,34.7129625 L22.2820755,52.6792015 L58.4072199,25.3204962 L53.3160195,17.6175926 Z" id="Combined-Shape" stroke="#FFFFFF" stroke-width="2"></path>
    </g>
</svg>