<?xml version="1.0" encoding="UTF-8"?>
<svg width="70px" height="70px" viewBox="0 0 70 70" version="1.1" xmlns="http://www.w3.org/2000/svg" xmlns:xlink="http://www.w3.org/1999/xlink">
    <!-- Generator: Sketch 63.1 (92452) - https://sketch.com -->
    <title>Group</title>
    <desc>Created with Sketch.</desc>
    <g id="Page-1" stroke="none" stroke-width="1" fill="none" fill-rule="evenodd" opacity="0.75265067">
        <g id="Group" stroke="#FFFFFF" stroke-width="2">
            <circle id="Oval" cx="35" cy="35" r="34"></circle>
            <path d="M40.0005029,22.1302456 C39.7614369,21.9920355 39.4889825,21.9638105 39.2417421,22.0299045 C38.9945017,22.0959984 38.7724752,22.2564114 38.6342652,22.4954775 L23.6006914,48.4994971 C23.5127362,48.6516358 23.4664262,48.8242664 23.4664262,49 C23.4664262,49.2761424 23.578355,49.5261424 23.7593194,49.7071068 C23.9402838,49.8880712 24.1902838,50 24.4664262,50 L54.5335738,50 C54.7093074,50 54.881938,49.95369 55.0340768,49.8657348 C55.2731428,49.7275248 55.4335558,49.5054983 55.4996498,49.2582579 C55.5657438,49.0110175 55.5375187,48.7385631 55.3993086,48.4994971 L40.3657348,22.4954775 C40.2780754,22.3438503 40.1521301,22.2179051 40.0005029,22.1302456 Z" id="Triangle" transform="translate(39.500000, 35.000000) rotate(90.000000) translate(-39.500000, -35.000000) "></path>
        </g>
    </g>
</svg>