<?xml version="1.0" encoding="UTF-8"?>
<svg width="115px" height="114px" viewBox="0 0 115 114" version="1.1" xmlns="http://www.w3.org/2000/svg" xmlns:xlink="http://www.w3.org/1999/xlink">
    <!-- Generator: Sketch 63.1 (92452) - https://sketch.com -->
    <title>Combined Shape</title>
    <desc>Created with Sketch.</desc>
    <g id="Page-1" stroke="none" stroke-width="1" fill="none" fill-rule="evenodd" opacity="0.902297247">
        <path d="M71.3441005,2.66453526e-13 L71.3431867,2.353 L74.9741108,14.7134121 C78.1068413,16.0756996 81.0543078,17.7840971 83.7682344,19.7903289 L83.6004933,19.3562514 L97.6541078,16.2052962 L100.043063,14.8270876 L114.543063,39.9418243 L112.504848,41.1175329 L102.33074,51.7889791 L101.779548,51.0821537 C101.955102,52.6973174 102.045187,54.3381384 102.045187,56 C102.045187,57.6831354 101.95278,59.3446881 101.772764,60.9798618 L111.082452,71.0905148 L113.470494,72.4703061 L98.9704936,97.5850428 L96.9331928,96.4077515 L82.7204613,92.9613209 C80.4263998,94.5578893 77.9766657,95.9463544 75.3986041,97.0993714 L71.1998761,110.528437 L71.1989623,113.286437 L42.1989623,113.286437 L42.1998761,110.933437 L38.0509206,96.8066835 C35.4934014,95.6142073 33.0665875,94.1883753 30.797856,92.5565648 L30.9425694,92.9301856 L16.888955,96.0811408 L14.5,97.4593494 L5.5067062e-13,72.3446127 L2.03821468,71.1689041 L12.2123229,60.4974579 L12.2753601,60.579704 C12.1231502,59.0738235 12.0451867,57.5460164 12.0451867,56 C12.0451867,54.2540797 12.1446155,52.5313823 12.3381195,50.8372612 L3.46061028,41.1959223 L1.07256912,39.8161309 L15.5725691,14.7013942 L17.60987,15.8786856 L31.1827823,19.1696177 C33.4803537,17.5532817 35.9359911,16.1464892 38.5219159,14.9770186 L42.3431867,2.758 L42.3441005,2.66453526e-13 L71.3441005,2.66453526e-13 Z M57.5451867,34 C45.1187798,34 35.0451867,44.0735931 35.0451867,56.5 C35.0451867,68.9264069 45.1187798,79 57.5451867,79 C69.9715936,79 80.0451867,68.9264069 80.0451867,56.5 C80.0451867,44.0735931 69.9715936,34 57.5451867,34 Z" id="Combined-Shape" fill="#FFFFFF"></path>
    </g>
</svg>