<?xml version="1.0" encoding="UTF-8"?>
<svg width="115px" height="114px" viewBox="0 0 115 114" version="1.1" xmlns="http://www.w3.org/2000/svg" xmlns:xlink="http://www.w3.org/1999/xlink">
    <!-- Generator: Sketch 63.1 (92452) - https://sketch.com -->
    <title>Combined Shape</title>
    <desc>Created with Sketch.</desc>
    <g id="Page-1" stroke="none" stroke-width="1" fill="none" fill-rule="evenodd">
        <g id="Artboard" transform="translate(-363.000000, -14.000000)" fill="#000000">
            <path d="M434.298914,14 L434.298,16.353 L437.928924,28.7134121 C441.061655,30.0756996 444.009121,31.7840971 446.723048,33.7903289 L446.555307,33.3562514 L460.608921,30.2052962 L462.997876,28.8270876 L477.497876,53.9418243 L475.459661,55.1175329 L465.285553,65.7889791 L464.734362,65.0821537 C464.909915,66.6973174 465,68.3381384 465,70 C465,71.6831354 464.907594,73.3446881 464.727578,74.9798618 L474.037266,85.0905148 L476.425307,86.4703061 L461.925307,111.585043 L459.888006,110.407751 L445.675275,106.961321 C443.381213,108.557889 440.931479,109.946354 438.353417,111.099371 L434.154689,124.528437 L434.153776,127.286437 L405.153776,127.286437 L405.154689,124.933437 L401.005734,110.806684 C398.448215,109.614207 396.021401,108.188375 393.752669,106.556565 L393.897383,106.930186 L379.843768,110.081141 L377.454813,111.459349 L362.954813,86.3446127 L364.993028,85.1689041 L375.167136,74.4974579 L375.230173,74.579704 C375.077964,73.0738235 375,71.5460164 375,70 C375,68.2540797 375.099429,66.5313823 375.292933,64.8372612 L366.415424,55.1959223 L364.027382,53.8161309 L378.527382,28.7013942 L380.564683,29.8786856 L394.137596,33.1696177 C396.435167,31.5532817 398.890804,30.1464892 401.476729,28.9770186 L405.298,16.758 L405.298914,14 L434.298914,14 Z M420.5,48 C408.073593,48 398,58.0735931 398,70.5 C398,82.9264069 408.073593,93 420.5,93 C432.926407,93 443,82.9264069 443,70.5 C443,58.0735931 432.926407,48 420.5,48 Z" id="Combined-Shape"></path>
        </g>
    </g>
</svg>