<?xml version="1.0" encoding="UTF-8"?>
<svg width="105px" height="99px" viewBox="0 0 105 99" version="1.1" xmlns="http://www.w3.org/2000/svg" xmlns:xlink="http://www.w3.org/1999/xlink">
    <!-- Generator: Sketch 63.1 (92452) - https://sketch.com -->
    <title>Combined Shape</title>
    <desc>Created with Sketch.</desc>
    <g id="Page-1" stroke="none" stroke-width="1" fill="none" fill-rule="evenodd">
        <g id="Artboard" transform="translate(-45.000000, -150.000000)" fill="#000000">
            <path d="M66.5,193.5 L80.5,190.5 M54.8204135,151.144301 L79.6993738,174.343306 L107.643865,154.896481 C109.91042,153.319081 113.026561,153.877751 114.603961,156.144306 C115.187303,156.982508 115.5,157.979231 115.5,159.000441 L115.499374,207.727306 L148.433687,238.440091 C149.645434,239.570063 149.711725,241.468401 148.581753,242.680147 L143.807765,247.799623 C142.677793,249.01137 140.779455,249.077661 139.567709,247.947689 L115.499374,225.503306 L115.5,242.857629 C115.5,245.619053 113.261424,247.857629 110.5,247.857629 C109.47879,247.857629 108.482066,247.544933 107.643865,246.96159 L71.675,221.929 L51,221.929035 C48.2385763,221.929035 46,219.690459 46,216.929035 L46,184.929035 C46,182.167612 48.2385763,179.929035 51,179.929035 L66.6263738,179.928306 L45.9544349,160.651899 C44.7426884,159.521927 44.676397,157.623589 45.8063688,156.411843 L50.5803574,151.292367 C51.7103292,150.080621 53.6086671,150.014329 54.8204135,151.144301 Z" id="Combined-Shape"></path>
        </g>
    </g>
</svg>