<?xml version="1.0" encoding="UTF-8"?>
<svg width="100px" height="94px" viewBox="0 0 100 94" version="1.1" xmlns="http://www.w3.org/2000/svg" xmlns:xlink="http://www.w3.org/1999/xlink">
    <!-- Generator: Sketch 63.1 (92452) - https://sketch.com -->
    <title>Combined Shape</title>
    <desc>Created with Sketch.</desc>
    <g id="Page-1" stroke="none" stroke-width="1" fill="none" fill-rule="evenodd">
        <g id="Artboard" transform="translate(-31.000000, -21.000000)" fill="#000000" stroke="#000000">
            <path d="M99.1935647,23.4299199 C98.4837348,22.4099702 97.4276881,21.7742944 96.2941115,21.5710635 C95.1605349,21.3678327 93.9494284,21.5970467 92.9294786,22.3068766 L56.8308597,47.4289997 L36.0000009,47.4290353 C34.7573593,47.4290353 33.6323593,47.932715 32.8180195,48.7470548 C32.0036797,49.5613946 31.5,50.6863946 31.5,51.9290353 L31.5,83.9290353 C31.5,85.171676 32.0036797,86.296676 32.8180195,87.1110158 C33.6323593,87.9253557 34.7573593,88.4290353 36,88.4290353 L56.8318629,88.4289997 L92.9294802,113.551195 C93.6838597,114.076202 94.580911,114.357629 95.5,114.357629 C96.7426407,114.357629 97.8676407,113.85395 98.6819805,113.03961 C99.4963203,112.22527 100,111.10027 100,109.857629 L100,26.0004413 C100,25.0813522 99.7185731,24.184301 99.1935647,23.4299199 Z M111.852064,90.4361923 C111.207561,90.1887908 110.523794,90.2260472 109.939303,90.4862797 C109.354811,90.7465122 108.869594,91.2297207 108.622193,91.8742235 L107.905457,93.7413843 C107.658056,94.3858871 107.695312,95.0696541 107.955545,95.6541458 C108.215777,96.2386375 108.698986,96.7238538 109.343488,96.9712553 L126.147936,103.421878 C126.792439,103.66928 127.476206,103.632023 128.060697,103.371791 C128.645189,103.111558 129.130406,102.62835 129.377807,101.983847 L130.094543,100.116686 C130.341944,99.4721835 130.304688,98.7884165 130.044455,98.2039248 C129.784223,97.6194332 129.301014,97.1342168 128.656512,96.8868154 L111.852064,90.4361923 Z M128,64.4290353 L110,64.4290353 C109.309644,64.4290353 108.684644,64.7088573 108.232233,65.1612684 C107.779822,65.6136794 107.5,66.2386794 107.5,66.9290353 L107.5,68.9290353 C107.5,69.6193913 107.779822,70.2443913 108.232233,70.6968023 C108.684644,71.1492133 109.309644,71.4290353 110,71.4290353 L128,71.4290353 C128.690356,71.4290353 129.315356,71.1492133 129.767767,70.6968023 C130.220178,70.2443913 130.5,69.6193913 130.5,68.9290353 L130.5,66.9290353 C130.5,66.2386794 130.220178,65.6136794 129.767767,65.1612684 C129.315356,64.7088573 128.690356,64.4290353 128,64.4290353 Z M128.377807,33.8742235 C128.130406,33.2297207 127.645189,32.7465122 127.060697,32.4862797 C126.476206,32.2260472 125.792439,32.1887908 125.147936,32.4361923 L108.343488,38.8868154 C107.698986,39.1342168 107.215777,39.6194332 106.955545,40.2039248 C106.695312,40.7884165 106.658056,41.4721835 106.905457,42.1166863 L107.622193,43.9838472 C107.869594,44.62835 108.354811,45.1115585 108.939303,45.3717909 C109.523794,45.6320234 110.207561,45.6692798 110.852064,45.4218784 L127.656512,38.9712553 C128.301014,38.7238538 128.784223,38.2386375 129.044455,37.6541458 C129.304688,37.0696541 129.341944,36.3858871 129.094543,35.7413843 L128.377807,33.8742235 Z" id="Combined-Shape"></path>
        </g>
    </g>
</svg>