<?xml version="1.0" encoding="UTF-8"?>
<svg width="85px" height="91px" viewBox="0 0 85 91" version="1.1" xmlns="http://www.w3.org/2000/svg" xmlns:xlink="http://www.w3.org/1999/xlink">
    <!-- Generator: Sketch 63.1 (92452) - https://sketch.com -->
    <title>Group 7</title>
    <desc>Created with Sketch.</desc>
    <g id="Page-1" stroke="none" stroke-width="1" fill="none" fill-rule="evenodd" opacity="0.849121094">
        <g id="Group-7" transform="translate(-0.989978, 0.000098)" fill="#FFFFFF" fill-rule="nonzero">
            <g id="Group-6">
                <path d="M66.2800541,0.335715849 C65.1808174,-0.241835312 63.9594434,-0.0493182585 63.0434128,0.720749956 L35.9899777,23.3735899 L67.9899777,56.999902 L67.9899777,3.22347165 C67.9899777,2.00419698 67.318222,0.849094658 66.2800541,0.335715849 Z" id="Path"></path>
                <path d="M85.1019996,85.4490011 L6.17060918,0.950509993 C4.98663832,-0.316967374 3.06192673,-0.316967374 1.87795587,0.950509993 C0.693985014,2.21798736 0.693985014,4.27845057 1.87795587,5.54592793 L20.9793523,26.0010627 L19.2003602,26.0010627 C17.3181502,26.0010627 15.6788059,26.9110464 14.5859097,28.3410209 C13.6751629,29.4460011 13.1287148,30.9409744 13.1287148,32.5009466 L13.1287148,58.5004823 C13.1287148,62.0754185 15.8609553,65.0003662 19.2003602,65.0003662 L33.2865776,65.0003662 L62.8554908,90.2849147 C63.4019389,90.7399066 64.0698199,90.999902 64.7377009,90.999902 C65.162716,90.999902 65.6484477,90.8699043 66.0734629,90.6749078 C67.1056426,90.1549171 67.7735236,88.9849379 67.7735236,87.74996 L67.7735236,76.0956681 L80.8032746,90.044419 C81.3982959,90.6814077 82.1754665,90.999902 82.9526371,90.999902 C83.7298077,90.999902 84.5069783,90.6814077 85.1019996,90.0509189 C86.2859704,88.7769417 86.2859704,86.7229783 85.1019996,85.4490011 Z" id="Path"></path>
            </g>
        </g>
    </g>
</svg>