<?xml version="1.0" encoding="UTF-8"?>
<svg width="92px" height="67px" viewBox="0 0 92 67" version="1.1" xmlns="http://www.w3.org/2000/svg" xmlns:xlink="http://www.w3.org/1999/xlink">
    <!-- Generator: Sketch 63.1 (92452) - https://sketch.com -->
    <title>Combined Shape</title>
    <desc>Created with Sketch.</desc>
    <g id="Page-1" stroke="none" stroke-width="1" fill="none" fill-rule="evenodd">
        <g id="Artboard" transform="translate(-187.000000, -20.000000)" fill="#000000">
            <path d="M271,72 L271.000414,72.016375 C271.16554,72.0055154 271.332126,72 271.5,72 C275.642136,72 279,75.3578644 279,79.5 C279,83.6421356 275.642136,87 271.5,87 C271.332126,87 271.16554,86.9944846 271.000414,86.983625 L271,87 L194,87 L194.000414,86.983625 C190.091202,86.7265344 187,83.4742617 187,79.5 C187,75.5257383 190.091202,72.2734656 194.000414,72.016375 L194,72 L271,72 Z M271,46 L271.000414,46.016375 C271.16554,46.0055154 271.332126,46 271.5,46 C275.642136,46 279,49.3578644 279,53.5 C279,57.6421356 275.642136,61 271.5,61 C271.332126,61 271.16554,60.9944846 271.000414,60.983625 L271,61 L194,61 L194.000414,60.983625 C190.091202,60.7265344 187,57.4742617 187,53.5 C187,49.5257383 190.091202,46.2734656 194.000414,46.016375 L194,46 L271,46 Z M271,20 L271.000414,20.016375 C271.16554,20.0055154 271.332126,20 271.5,20 C275.642136,20 279,23.3578644 279,27.5 C279,31.6421356 275.642136,35 271.5,35 C271.332126,35 271.16554,34.9944846 271.000414,34.983625 L271,35 L194,35 L194.000414,34.983625 C190.091202,34.7265344 187,31.4742617 187,27.5 C187,23.5257383 190.091202,20.2734656 194.000414,20.016375 L194,20 L271,20 Z" id="Combined-Shape"></path>
        </g>
    </g>
</svg>