<?xml version="1.0" encoding="UTF-8"?>
<svg width="83px" height="58px" viewBox="0 0 83 58" version="1.1" xmlns="http://www.w3.org/2000/svg" xmlns:xlink="http://www.w3.org/1999/xlink">
    <!-- Generator: Sketch 63.1 (92452) - https://sketch.com -->
    <title>Combined Shape</title>
    <desc>Created with Sketch.</desc>
    <g id="Page-1" stroke="none" stroke-width="1" fill="none" fill-rule="evenodd">
        <path d="M80,52 C81.6568542,52 83,53.3431458 83,55 C83,56.5976809 81.75108,57.9036609 80.1762728,57.9949073 L80,58 L3,58 L2.82372721,57.9949073 C1.24891996,57.9036609 0,56.5976809 0,55 C0,53.4023191 1.24891996,52.0963391 2.82372721,52.0050927 L3,52 L80,52 Z M80,26 C81.6568542,26 83,27.3431458 83,29 C83,30.5976809 81.75108,31.9036609 80.1762728,31.9949073 L80,32 L3,32 L2.82372721,31.9949073 C1.24891996,31.9036609 0,30.5976809 0,29 C0,27.4023191 1.24891996,26.0963391 2.82372721,26.0050927 L3,26 L80,26 Z M80,0 C81.6568542,0 83,1.34314575 83,3 C83,4.59768088 81.75108,5.90366088 80.1762728,5.99490731 L80,6 L3,6 L2.82372721,5.99490731 C1.24891996,5.90366088 0,4.59768088 0,3 C0,1.40231912 1.24891996,0.0963391206 2.82372721,0.00509269341 L3,0 L80,0 Z" id="Combined-Shape" fill="#FFFFFF"></path>
    </g>
</svg>